<svg xmlns="http://www.w3.org/2000/svg" width="133" height="48" viewBox="0 0 133 48" fill="none"><path d="M34 0V15.9937L33.6718 16.332L17.8734 32.166H17.7984L2 16.332H17.7515V16.2944L34 0Z" fill="#162339"></path><path d="M33.9906 32.166L18.1828 48H17.7515V32.2882L17.8734 32.166H33.9906Z" fill="#162339"></path><path d="M56.3774 10.9406C56.3202 10.9976 56.2515 11.0204 56.1714 11.0204H48.4453C48.3652 11.0204 48.3308 11.0546 48.3308 11.1344V14.7816C48.3308 14.8614 48.3652 14.8956 48.4453 14.8956H53.5274C53.6075 14.8956 53.6762 14.9184 53.7334 14.9754C53.7906 15.0324 53.8135 15.1008 53.8135 15.1806V17.4601C53.8135 17.5399 53.7906 17.6083 53.7334 17.6653C53.6762 17.7223 53.6075 17.7451 53.5274 17.7451H48.4453C48.3652 17.7451 48.3308 17.7792 48.3308 17.859V24.3443C48.3308 24.4241 48.3079 24.4925 48.2507 24.5495C48.1935 24.6065 48.1248 24.6293 48.0447 24.6293H45.2862C45.206 24.6293 45.1374 24.6065 45.0801 24.5495C45.0229 24.4925 45 24.4241 45 24.3443V8.45591C45 8.37612 45.0229 8.30774 45.0801 8.25075C45.1374 8.19376 45.206 8.17097 45.2862 8.17097H56.1714C56.2515 8.17097 56.3202 8.19376 56.3774 8.25075C56.4347 8.30774 56.4576 8.37612 56.4576 8.45591V10.7355C56.4576 10.8152 56.4347 10.8836 56.3774 10.9406Z" fill="#162339"></path><path d="M64.7217 12.7187C64.8476 12.787 64.8934 12.901 64.859 13.072L64.3668 15.7504C64.3554 15.9442 64.2409 15.9898 64.0349 15.91C63.7945 15.8302 63.5198 15.796 63.2108 15.796C63.0849 15.796 62.9132 15.8074 62.6957 15.8416C62.1234 15.8872 61.6541 16.0924 61.2535 16.4685C60.8643 16.8332 60.6583 17.3233 60.6583 17.9388V24.3557C60.6583 24.4355 60.6354 24.5039 60.5782 24.5609C60.5209 24.6179 60.4523 24.6407 60.3721 24.6407H57.6136C57.5335 24.6407 57.4648 24.6179 57.4076 24.5609C57.3504 24.5039 57.3275 24.4355 57.3275 24.3557V12.8326C57.3275 12.7528 57.3504 12.6845 57.4076 12.6275C57.4648 12.5705 57.5335 12.5477 57.6136 12.5477H60.3836C60.4637 12.5477 60.5324 12.5705 60.5896 12.6275C60.6468 12.6845 60.6697 12.7528 60.6697 12.8326V13.7217C60.6697 13.7672 60.6812 13.8014 60.7155 13.8128C60.7499 13.8242 60.7728 13.8242 60.7842 13.79C61.4252 12.844 62.2951 12.3767 63.3825 12.3767C63.9433 12.3881 64.3897 12.5021 64.7217 12.7187Z" fill="#162339"></path><path d="M73.8213 12.8896C74.6226 13.243 75.2521 13.7217 75.6985 14.3371C76.1449 14.9526 76.3738 15.6251 76.3738 16.3773V24.3443C76.3738 24.4241 76.3509 24.4925 76.2937 24.5495C76.2365 24.6065 76.1678 24.6293 76.0877 24.6293H73.3177C73.2376 24.6293 73.1689 24.6065 73.1117 24.5495C73.0544 24.4925 73.0315 24.4241 73.0315 24.3443V23.5693C73.0315 23.5237 73.0201 23.4895 72.9858 23.4781C72.9514 23.4667 72.9171 23.4781 72.8942 23.5237C72.2303 24.3899 71.1658 24.8116 69.7122 24.8116C68.4874 24.8116 67.4916 24.5153 66.7362 23.9226C65.9807 23.3299 65.603 22.4523 65.603 21.2897C65.603 20.0816 66.0265 19.147 66.8735 18.4745C67.7205 17.8134 68.9338 17.4715 70.5134 17.4715H72.9171C72.9972 17.4715 73.0315 17.4373 73.0315 17.3575V16.8446C73.0315 16.3317 72.8713 15.9214 72.5623 15.6365C72.2418 15.3515 71.7725 15.2034 71.1429 15.2034C70.6508 15.2034 70.2501 15.2945 69.9296 15.4655C69.6092 15.6365 69.4031 15.8758 69.3001 16.195C69.2543 16.3659 69.1513 16.4457 68.9911 16.4343L66.1295 16.0582C65.935 16.024 65.8548 15.9556 65.8663 15.8416C65.9235 15.1806 66.1982 14.5879 66.6561 14.0522C67.1253 13.5165 67.732 13.1062 68.4989 12.8098C69.2658 12.5135 70.1128 12.3653 71.0628 12.3653C72.1044 12.3653 73.0087 12.5363 73.8213 12.8896ZM72.3333 21.814C72.8026 21.4493 73.043 20.9934 73.043 20.4235V19.5801C73.043 19.5003 73.0087 19.4661 72.9285 19.4661H71.2231C70.5134 19.4661 69.964 19.6029 69.5634 19.865C69.1628 20.1272 68.9567 20.5033 68.9567 20.9934C68.9567 21.4151 69.1055 21.7457 69.4031 21.9964C69.7007 22.2358 70.1013 22.3611 70.605 22.3611C71.2803 22.3611 71.8526 22.1788 72.3333 21.814Z" fill="#162339"></path><path d="M88.0832 13.5165C88.8501 14.2801 89.2392 15.3287 89.2392 16.6395V24.3557C89.2392 24.4355 89.2164 24.5039 89.1591 24.5609C89.1019 24.6179 89.0332 24.6407 88.9531 24.6407H86.1946C86.1145 24.6407 86.0458 24.6179 85.9885 24.5609C85.9313 24.5039 85.9084 24.4355 85.9084 24.3557V17.3233C85.9084 16.6965 85.7367 16.1836 85.3819 15.796C85.0271 15.4085 84.5578 15.2034 83.974 15.2034C83.3903 15.2034 82.921 15.3971 82.5662 15.796C82.2113 16.1836 82.0396 16.6965 82.0396 17.3233V24.3557C82.0396 24.4355 82.0167 24.5039 81.9595 24.5609C81.9023 24.6179 81.8336 24.6407 81.7535 24.6407H78.995C78.9148 24.6407 78.8462 24.6179 78.7889 24.5609C78.7317 24.5039 78.7088 24.4355 78.7088 24.3557V12.8326C78.7088 12.7528 78.7317 12.6845 78.7889 12.6275C78.8462 12.5705 78.9148 12.5477 78.995 12.5477H81.7535C81.8336 12.5477 81.9023 12.5705 81.9595 12.6275C82.0167 12.6845 82.0396 12.7528 82.0396 12.8326V13.6533C82.0396 13.6989 82.0511 13.7331 82.0854 13.7445C82.1198 13.7558 82.1427 13.7558 82.1541 13.7217C82.7951 12.8098 83.7566 12.3539 85.0385 12.3539C86.2862 12.3653 87.3049 12.7528 88.0832 13.5165Z" fill="#162339"></path><path d="M91.6773 24.5609C91.62 24.5039 91.5971 24.4355 91.5971 24.3557V8.45591C91.5971 8.37612 91.62 8.30774 91.6773 8.25075C91.7345 8.19376 91.8032 8.17097 91.8833 8.17097H94.6418C94.7219 8.17097 94.7906 8.19376 94.8478 8.25075C94.9051 8.30774 94.928 8.37612 94.928 8.45591V16.3773C94.928 16.4229 94.9394 16.4571 94.9738 16.4571C95.0081 16.4685 95.031 16.4571 95.0653 16.4229L98.2817 12.7073C98.3961 12.5933 98.5106 12.5477 98.6365 12.5477H101.773C101.933 12.5477 102.013 12.6047 102.013 12.7073C102.013 12.7528 101.99 12.8212 101.944 12.901L98.9341 16.6851C98.8998 16.7534 98.8998 16.799 98.9112 16.8446L102.425 24.2987C102.46 24.3671 102.471 24.4127 102.471 24.4355C102.471 24.5609 102.379 24.6293 102.208 24.6293H99.3004C99.1401 24.6293 99.0371 24.5609 98.9684 24.4127L96.6334 18.9076C96.622 18.8734 96.5877 18.862 96.5533 18.8506C96.519 18.8392 96.4846 18.8506 96.4732 18.8848L94.9623 20.7654C94.928 20.8338 94.9165 20.8794 94.9165 20.9022V24.3329C94.9165 24.4127 94.8936 24.4811 94.8364 24.5381C94.7792 24.5951 94.7105 24.6179 94.6304 24.6179H91.8719C91.8032 24.6407 91.7345 24.6065 91.6773 24.5609Z" fill="#162339"></path><path d="M111.708 24.0936C110.781 23.6035 110.06 22.931 109.545 22.0648C109.03 21.1986 108.778 20.1842 108.778 19.0444V13.7786C108.778 12.6389 109.03 11.6245 109.545 10.7468C110.06 9.86923 110.781 9.19676 111.708 8.71806C112.635 8.23935 113.711 8 114.924 8C116.115 8 117.179 8.23935 118.095 8.70666C119.011 9.17396 119.732 9.81224 120.247 10.6215C120.762 11.4307 121.014 12.3311 121.014 13.3113V13.4709C121.014 13.5507 120.991 13.6191 120.934 13.6761C120.876 13.7331 120.808 13.7558 120.728 13.7558H117.969C117.889 13.7558 117.82 13.7331 117.763 13.6761C117.706 13.6191 117.683 13.5507 117.683 13.4709V13.4025C117.683 12.6845 117.431 12.069 116.927 11.5789C116.424 11.0888 115.76 10.838 114.924 10.838C114.077 10.838 113.391 11.1002 112.887 11.6245C112.372 12.1488 112.12 12.8326 112.12 13.6761V19.1356C112.12 19.979 112.395 20.6629 112.944 21.1872C113.494 21.7115 114.192 21.9736 115.05 21.9736C115.863 21.9736 116.527 21.757 117.008 21.3239C117.5 20.8908 117.74 20.2981 117.74 19.5231V18.4631C117.74 18.3833 117.706 18.3491 117.626 18.3491H114.982C114.901 18.3491 114.833 18.3263 114.776 18.2693C114.718 18.2124 114.695 18.144 114.695 18.0642V15.8986C114.695 15.8188 114.718 15.7505 114.776 15.6935C114.833 15.6365 114.901 15.6137 114.982 15.6137H120.739C120.819 15.6137 120.888 15.6365 120.945 15.6935C121.002 15.7505 121.025 15.8188 121.025 15.8986V18.9988C121.025 20.1956 120.773 21.2214 120.27 22.099C119.766 22.9766 119.056 23.6491 118.129 24.105C117.214 24.5723 116.138 24.8002 114.924 24.8002C113.711 24.823 112.647 24.5837 111.708 24.0936Z" fill="#162339"></path><path d="M123.795 24.2076C123.44 23.8542 123.269 23.4097 123.269 22.874C123.269 22.3269 123.44 21.8824 123.784 21.5291C124.127 21.1872 124.573 21.0162 125.134 21.0162C125.684 21.0162 126.13 21.1872 126.485 21.5291C126.828 21.871 127 22.3155 127 22.874C127 23.4097 126.828 23.8542 126.473 24.2076C126.119 24.5609 125.672 24.7319 125.134 24.7319C124.585 24.7319 124.15 24.5609 123.795 24.2076Z" fill="#162339"></path><path d="M56.3774 32.1062C56.3202 32.1632 56.2515 32.186 56.1714 32.186H48.4453C48.3652 32.186 48.3308 32.2202 48.3308 32.2999V35.9472C48.3308 36.027 48.3652 36.0612 48.4453 36.0612H53.5274C53.6075 36.0612 53.6762 36.084 53.7334 36.141C53.7906 36.198 53.8135 36.2663 53.8135 36.3461V38.6257C53.8135 38.7055 53.7906 38.7738 53.7334 38.8308C53.6762 38.8878 53.6075 38.9106 53.5274 38.9106H48.4453C48.3652 38.9106 48.3308 38.9448 48.3308 39.0246V45.5099C48.3308 45.5897 48.3079 45.6581 48.2507 45.7151C48.1935 45.772 48.1248 45.7948 48.0447 45.7948H45.2862C45.206 45.7948 45.1374 45.772 45.0801 45.7151C45.0229 45.6581 45 45.5897 45 45.5099V29.6215C45 29.5417 45.0229 29.4733 45.0801 29.4163C45.1374 29.3593 45.206 29.3365 45.2862 29.3365H56.1714C56.2515 29.3365 56.3202 29.3593 56.3774 29.4163C56.4347 29.4733 56.4576 29.5417 56.4576 29.6215V31.901C56.4576 31.9808 56.4347 32.0492 56.3774 32.1062Z" fill="#162339"></path><path d="M64.447 34.0552C65.2482 34.4085 65.8777 34.8872 66.3241 35.5027C66.7705 36.1182 66.9994 36.7906 66.9994 37.5429V45.5099C66.9994 45.5897 66.9765 45.6581 66.9193 45.7151C66.8621 45.772 66.7934 45.7948 66.7133 45.7948H63.9548C63.8746 45.7948 63.806 45.772 63.7487 45.7151C63.6915 45.6581 63.6686 45.5897 63.6686 45.5099V44.7349C63.6686 44.6893 63.6572 44.6551 63.6228 44.6437C63.5885 44.6323 63.5542 44.6437 63.5313 44.6893C62.8674 45.5555 61.8029 45.9772 60.3492 45.9772C59.1245 45.9772 58.1287 45.6809 57.3733 45.0882C56.6178 44.4955 56.2401 43.6179 56.2401 42.4553C56.2401 41.2471 56.6636 40.3125 57.5106 39.6401C58.3576 38.979 59.5709 38.6371 61.1505 38.6371H63.5542C63.6343 38.6371 63.6686 38.6029 63.6686 38.5231V38.0102C63.6686 37.4973 63.5084 37.087 63.1993 36.802C62.8788 36.5171 62.4095 36.3689 61.78 36.3689C61.2878 36.3689 60.8872 36.4601 60.5667 36.6311C60.2462 36.802 60.0402 37.0414 59.9372 37.3605C59.8914 37.5315 59.7884 37.6113 59.6281 37.5999L56.7666 37.2238C56.572 37.1896 56.4919 37.1212 56.5033 37.0072C56.5606 36.3461 56.8353 35.7534 57.2931 35.2178C57.7624 34.6821 58.3691 34.2717 59.136 33.9754C59.9028 33.6791 60.7499 33.5309 61.6999 33.5309C62.73 33.5195 63.6343 33.7019 64.447 34.0552ZM62.959 42.9796C63.4282 42.6149 63.6686 42.159 63.6686 41.5891V40.7457C63.6686 40.6659 63.6343 40.6317 63.5542 40.6317H61.8487C61.139 40.6317 60.5896 40.7684 60.189 41.0306C59.7884 41.2927 59.5824 41.6689 59.5824 42.159C59.5824 42.5807 59.7312 42.9112 60.0288 43.162C60.3264 43.4013 60.727 43.5267 61.2306 43.5267C61.9059 43.5153 62.4782 43.3329 62.959 42.9796Z" fill="#162339"></path><path d="M80.5173 39.7085C80.5173 40.7912 80.38 41.7373 80.1167 42.5579C79.7504 43.6293 79.1781 44.4613 78.3769 45.0768C77.5871 45.6923 76.6371 45.9886 75.5497 45.9886C74.4051 45.9886 73.5008 45.5555 72.837 44.7007C72.8026 44.6665 72.7683 44.6551 72.7454 44.6665C72.7111 44.6779 72.6996 44.7007 72.6996 44.7463V45.5213C72.6996 45.6011 72.6767 45.6695 72.6195 45.7265C72.5623 45.7834 72.4936 45.8062 72.4134 45.8062H69.6549C69.5748 45.8062 69.5061 45.7834 69.4489 45.7265C69.3917 45.6695 69.3688 45.6011 69.3688 45.5213V29.6215C69.3688 29.5417 69.3917 29.4733 69.4489 29.4163C69.5061 29.3593 69.5748 29.3365 69.6549 29.3365H72.4134C72.4936 29.3365 72.5623 29.3593 72.6195 29.4163C72.6767 29.4733 72.6996 29.5417 72.6996 29.6215V34.6479C72.6996 34.6935 72.7111 34.7277 72.7454 34.7391C72.7797 34.7504 72.8026 34.7391 72.837 34.6935C73.455 33.907 74.325 33.5195 75.4581 33.5195C76.6027 33.5195 77.5757 33.8158 78.354 34.3971C79.1323 34.9784 79.7046 35.7762 80.0709 36.7792C80.3685 37.6113 80.5173 38.5801 80.5173 39.7085ZM77.072 39.7768C77.072 38.6941 76.8774 37.862 76.4997 37.2807C76.122 36.6653 75.5611 36.3689 74.8286 36.3689C74.1304 36.3689 73.6039 36.6767 73.249 37.2807C72.9056 37.8734 72.7339 38.6941 72.7339 39.754C72.7339 40.8026 72.8942 41.6005 73.2032 42.1248C73.581 42.7972 74.1304 43.1392 74.8515 43.1392C75.6184 43.1392 76.2021 42.7972 76.5798 42.1248C76.9118 41.5321 77.072 40.7456 77.072 39.7768Z" fill="#162339"></path><path d="M93.4629 40.5063C93.4514 40.7001 93.3484 40.7912 93.1538 40.7912H85.8626C85.7711 40.7912 85.7367 40.8254 85.7711 40.9052C85.8169 41.2244 85.9084 41.5321 86.0343 41.8512C86.4464 42.7288 87.282 43.1734 88.541 43.1734C89.5483 43.162 90.3381 42.7516 90.9218 41.9538C90.9791 41.8626 91.0592 41.817 91.1393 41.817C91.1851 41.817 91.2423 41.8512 91.2995 41.9082L93.005 43.5723C93.0851 43.6521 93.1195 43.7205 93.1195 43.7888C93.1195 43.823 93.0851 43.88 93.0279 43.9826C92.5128 44.6209 91.8375 45.1224 91.0248 45.4757C90.2007 45.829 89.3079 46 88.335 46C86.9844 46 85.8398 45.6923 84.9012 45.0882C83.9626 44.4727 83.2873 43.6179 82.8867 42.5237C82.5547 41.7373 82.3945 40.7115 82.3945 39.4463C82.3945 38.5801 82.5089 37.8278 82.7493 37.1668C83.1156 36.0498 83.7451 35.1722 84.6494 34.5111C85.5536 33.85 86.6295 33.5195 87.8772 33.5195C89.4567 33.5195 90.7158 33.9754 91.6658 34.8872C92.6159 35.799 93.1996 37.0072 93.4056 38.5345C93.4629 39.1044 93.4972 39.7654 93.4629 40.5063ZM85.9084 37.7594C85.8397 37.9646 85.794 38.2154 85.7482 38.5117C85.7482 38.5915 85.7825 38.6257 85.8626 38.6257H89.9489C90.0405 38.6257 90.0748 38.5915 90.0405 38.5117C89.9604 38.0558 89.926 37.8392 89.926 37.8506C89.7887 37.3833 89.5368 37.0186 89.182 36.7564C88.8272 36.4943 88.3922 36.3689 87.8772 36.3689C86.8699 36.3689 86.2175 36.8362 85.9084 37.7594Z" fill="#162339"></path><path d="M95.6033 45.7151C95.5461 45.6581 95.5232 45.5897 95.5232 45.5099V29.6215C95.5232 29.5417 95.5461 29.4733 95.6033 29.4163C95.6605 29.3593 95.7292 29.3365 95.8093 29.3365H98.5678C98.648 29.3365 98.7166 29.3593 98.7739 29.4163C98.8311 29.4733 98.854 29.5417 98.854 29.6215V45.5213C98.854 45.6011 98.8311 45.6695 98.7739 45.7265C98.7166 45.7834 98.648 45.8062 98.5678 45.8062H95.8093C95.7178 45.7948 95.6491 45.772 95.6033 45.7151Z" fill="#162339"></path><path d="M101.361 45.7151C101.303 45.6581 101.281 45.5897 101.281 45.5099V29.6215C101.281 29.5417 101.303 29.4733 101.361 29.4163C101.418 29.3593 101.487 29.3365 101.567 29.3365H104.325C104.405 29.3365 104.474 29.3593 104.531 29.4163C104.588 29.4733 104.611 29.5417 104.611 29.6215V45.5213C104.611 45.6011 104.588 45.6695 104.531 45.7265C104.474 45.7834 104.405 45.8062 104.325 45.8062H101.567C101.475 45.7948 101.418 45.772 101.361 45.7151Z" fill="#162339"></path></svg>