<svg version="1.2" xmlns="http://www.w3.org/2000/svg" viewBox="0 0 892 176" width="892" height="176">
	<title>logo (2)-svg</title>
	<style>
		tspan { white-space:pre } 
		.t0 { font-size: 189px;fill: #002d74;font-weight: bold;font-family: "Galvji" } 
		.t1 { font-size: 78px;fill: #fff;font-weight: 900;font-family: "Kanit-Black", "Kanit" } 
		.t2 { font-size: 93px;fill: #002d74;font-weight: 900;font-family: "Kanit-Black", "Kanit" } 
		.s3 { fill: #ffffff } 
		.s4 { fill: #004dde;stroke: #004dde;stroke-width: 5 } 
	</style>
	<g id="Group_3">
		<text id="t" style="transform: matrix(1,0,0,1,53,136)" >
			<tspan x="0" y="0" class="t0">t
</tspan>
		</text>
		<text id="SERVICES GROUP" style="transform: matrix(1,0,0,1,144,137)" >
			<tspan x="0" y="0" class="t1">SERVICES GROUP
</tspan>
		</text>
		<text id="I" style="transform: matrix(1,0,0,1,27,136)" >
			<tspan x="0" y="0" class="t2">I
</tspan>
		</text>
		<path id="Ellipse_1" class="s3" d="m42 87c-23.8 0-43-19.2-43-43 0-23.8 19.2-43 43-43 23.8 0 43 19.2 43 43 0 23.8-19.2 43-43 43z"/>
		<path id="Rectangle_1" class="s3" d="m39 27h35v33h-35z"/>
		<g id="Group_2">
			<path id="Path_3" class="s4" d="m59.7 12.2q-0.7-0.4-1.6-0.5-0.8-0.1-1.5 0.2-0.8 0.2-1.5 0.7-0.6 0.5-1 1.2-0.4 0.7-0.5 1.5-0.1 0.8 0.1 1.6 0.3 0.8 0.8 1.4 0.5 0.7 1.2 1.1c8.3 5.1 13.8 14.2 13.8 23.6 0 7.4-2.9 14.4-8.1 19.6-5.2 5.2-12.2 8.1-19.5 8.1-7.3 0-14.4-2.9-19.5-8.1-5.2-5.2-8.1-12.2-8.1-19.6q0-3.6 1-7.1 1-3.5 2.8-6.7 1.8-3.1 4.3-5.7 2.6-2.7 5.7-4.5c1.6-1.2 2.3-3.6 1.2-5.2q-0.4-0.7-1.1-1.2-0.6-0.5-1.4-0.7-0.7-0.3-1.6-0.2-0.8 0.1-1.5 0.5c-11 6.4-17.7 18.1-17.7 30.8 0 12.7 6.7 24.4 17.7 30.8 11 6.3 24.6 6.3 35.5 0 11-6.3 17.8-18.1 17.8-30.8 0-3-0.4-6.1-1.2-9.1-0.8-3-2-5.8-3.5-8.5-1.5-2.7-3.3-5.2-5.5-7.4-2.1-2.2-4.5-4.1-7.1-5.8z"/>
			<path id="Path_4" class="s4" d="m41.5 47q0.8 0 1.5-0.3 0.8-0.2 1.4-0.8 0.5-0.6 0.8-1.3 0.3-0.8 0.2-1.6v-35.5q0.1-0.8-0.2-1.5-0.3-0.8-0.8-1.3-0.6-0.6-1.4-0.9-0.7-0.3-1.5-0.2-0.8-0.1-1.5 0.2-0.8 0.3-1.4 0.9-0.5 0.5-0.8 1.3-0.3 0.7-0.2 1.5v35.5q-0.1 0.8 0.2 1.6 0.3 0.7 0.8 1.3 0.6 0.6 1.4 0.8 0.7 0.3 1.5 0.3z"/>
		</g>
	</g>
</svg>